# xmcd
#
# Track frame offsets:
#	150
#	13929
#	27736
#	43849
#	57871
#	73413
#	88491
#	102072
#	114643
#	127908
#	137864
#	148325
#	163011
#	174407
#	189157
#	199391
#	213005
#	224868
#	238403
#	252178
#	264075
#	277971
#	291198
#	300645
#	311852
#
# Disc length: 4366 seconds
#
# Revision: 1
# Processed by: cddbd v1.5.2PL0 Copyright (c) Steve Scherf et al.
# Submitted via: audiograbber 1.83.01
#
DISCID=92110c19
DTITLE=Riley Puckett - Selected Sides CD B
DYEAR=1900
DGENRE=
TTITLE0=How Come You Do Me Like You Do
TTITLE1=Frankie and Johnny
TTITLE2=Won't You Come Over to My House
TTITLE3=Little Brown Jug
TTITLE4=When You're Gone I Won't Forget
TTITLE5=When I'm Gone You'll Soon Forget
TTITLE6=Bill Johnson
TTITLE7=Bury Me 'Neath the Willow Tree
TTITLE8=Back to My Home in the Smokey Mountains
TTITLE9=Let My Peaches Be
TTITLE10=My Olde Mule
TTITLE11=You'd Be Surprised
TTITLE12=Short Life of Trouble
TTITLE13=Nine Hundred Miles from Home
TTITLE14=Though You're Not Satisfied With Me
TTITLE15=I'm Going to Georgia
TTITLE16=Burglar Man
TTITLE17=Just As the Sun Whent Down
TTITLE18=Let Me Call You Sweetheart
TTITLE19=Blue Ridge Mountain Blues
TTITLE20=Careless Love
TTITLE21=Ole Faithful
TTITLE22=I Wish I Was a Single Girl Again
TTITLE23=Red River Valley
TTITLE24=My Carolina Home
EXTD=
EXTT0=
EXTT1=
EXTT2=
EXTT3=
EXTT4=
EXTT5=
EXTT6=
EXTT7=
EXTT8=
EXTT9=
EXTT10=
EXTT11=
EXTT12=
EXTT13=
EXTT14=
EXTT15=
EXTT16=
EXTT17=
EXTT18=
EXTT19=
EXTT20=
EXTT21=
EXTT22=
EXTT23=
EXTT24=
PLAYORDER=
